<svg width="100%" height="100%" viewBox="0 0 150 150" version="1.1" xmlns="http://www.w3.org/2000/svg" xml:space="preserve" xmlns:serif="http://www.serif.com/" style="fill-rule:evenodd;clip-rule:evenodd;stroke-linejoin:round;stroke-miterlimit:2;">
    <g transform="matrix(0.897586,0,0,0.897586,22.6696,11.9184)">
        <rect x="-25.256" y="-13.278" width="167.115" height="167.115" style="fill:none;"/>
        <g transform="matrix(1.1141,0,0,1.1141,-17.2019,-6.85152)">
            <circle cx="26.08" cy="26.913" r="24.458" style="fill:rgb(79,61,225);"/>
        </g>
        <g transform="matrix(1.19653,0.232034,-0.189762,0.978549,0.75783,3.24459)">
            <path d="M52.811,66.627C52.811,63.611 51.832,60.72 50.088,58.588C48.344,56.455 45.979,55.258 43.513,55.258C36.077,55.258 25.701,55.258 18.264,55.258C15.798,55.258 13.434,56.455 11.69,58.588C9.946,60.72 8.967,63.611 8.967,66.627C8.967,81.574 8.967,107.684 8.967,122.631C8.967,125.646 9.946,128.538 11.69,130.67C13.434,132.802 15.798,134 18.264,134C25.701,134 36.077,134 43.513,134C45.979,134 48.344,132.802 50.088,130.67C51.832,128.538 52.811,125.646 52.811,122.631C52.811,107.684 52.811,81.574 52.811,66.627Z" style="fill:rgb(79,61,225);"/>
        </g>
        <g transform="matrix(1.1141,0,0,1.1141,-19.9697,-4.11579)">
            <path d="M64.498,17.89C63.972,15.834 64.361,13.651 65.565,11.903C66.769,10.155 68.67,9.014 70.779,8.774C73.007,8.545 75.269,8.414 77.562,8.414C110.037,8.414 136.403,34.78 136.403,67.255C136.403,91.931 121.18,113.08 99.621,121.815C97.678,122.583 95.498,122.479 93.637,121.529C91.776,120.579 90.413,118.875 89.895,116.851C84.544,96.198 69.801,38.607 64.498,17.89Z" style="fill:rgb(79,61,225);"/>
        </g>
    </g>
</svg>
